<svg width="75" height="75" viewBox="0 0 75 75" fill="none" xmlns="http://www.w3.org/2000/svg">
<path d="M0 9.375C0 4.19733 4.95423 0 11.0656 0H63.9344C70.0458 0 75 4.19733 75 9.375V65.625C75 70.8027 70.0458 75 63.9344 75H11.0656C4.95423 75 0 70.8027 0 65.625V9.375Z" fill="#3768E4"/>
<path d="M22.25 58.25V53.75H33.5V49.25C30.3875 49.25 27.7344 48.1531 25.5406 45.9594C23.3469 43.7656 22.25 41.1125 22.25 38C22.25 35.7125 22.8781 33.6312 24.1344 31.7562C25.3906 29.8812 27.0875 28.5125 29.225 27.65C29.525 26.375 30.1906 25.3437 31.2219 24.5562C32.2531 23.7687 33.425 23.375 34.7375 23.375L33.5 19.8875L35.6375 19.1L34.85 17.075L39.125 15.5L39.8 17.6375L41.9375 16.85L48.125 33.725L45.9875 34.5125L46.775 36.65L42.5 38.225L41.825 36.0875L39.6875 36.875L38.3375 33.1625C37.775 33.6875 37.1281 34.0812 36.3969 34.3437C35.6656 34.6062 34.925 34.7 34.175 34.625C33.35 34.55 32.5812 34.2969 31.8687 33.8656C31.1562 33.4344 30.5375 32.9 30.0125 32.2625C29 32.8625 28.2031 33.6687 27.6219 34.6812C27.0406 35.6937 26.75 36.8 26.75 38C26.75 39.875 27.4062 41.4687 28.7187 42.7812C30.0312 44.0937 31.625 44.75 33.5 44.75H51.5V49.25H40.25V53.75H53.75V58.25H22.25ZM41.7125 32.4875L43.7375 31.7L39.9125 21.125L37.775 21.9125L41.7125 32.4875ZM36.2281 30.6031C36.6594 30.1719 36.875 29.6375 36.875 29C36.875 28.3625 36.6594 27.8281 36.2281 27.3969C35.7969 26.9656 35.2625 26.75 34.625 26.75C33.9875 26.75 33.4531 26.9656 33.0219 27.3969C32.5906 27.8281 32.375 28.3625 32.375 29C32.375 29.6375 32.5906 30.1719 33.0219 30.6031C33.4531 31.0344 33.9875 31.25 34.625 31.25C35.2625 31.25 35.7969 31.0344 36.2281 30.6031Z" fill="#2C2C2C"/>
</svg>
